<?xml version="1.0" standalone="no"?>
<!DOCTYPE svg PUBLIC "-//W3C//DTD SVG 20010904//EN"
 "http://www.w3.org/TR/2001/REC-SVG-20010904/DTD/svg10.dtd">
<svg version="1.0" xmlns="http://www.w3.org/2000/svg"
 width="1000.000000pt" height="171.000000pt" viewBox="0 0 1000.000000 171.000000"
 preserveAspectRatio="xMidYMid meet">

<g transform="translate(0.000000,171.000000) scale(0.100000,-0.100000)"
fill="#000000" stroke="none">
<path d="M7848 1698 c-27 -7 -66 -40 -158 -134 l-122 -124 4 -143 c4 -165 18
-205 94 -279 l44 -43 0 -475 c0 -357 3 -479 12 -488 8 -8 62 -12 175 -12 l163
0 10 26 c6 14 10 168 10 365 l0 339 185 0 185 0 0 -353 c0 -261 3 -356 12
-365 9 -9 174 -12 680 -12 649 0 668 1 678 19 6 13 10 183 10 485 l0 465 53
53 c74 74 87 116 87 286 l0 135 -112 116 c-73 75 -127 122 -153 133 -37 15
-115 17 -930 16 -544 0 -904 -4 -927 -10z m1920 -192 l102 -105 0 -98 c0 -126
-11 -162 -60 -207 -46 -42 -73 -50 -141 -44 -81 8 -133 58 -153 149 -15 63
-39 84 -76 66 -14 -7 -26 -19 -27 -27 -9 -73 -18 -95 -49 -129 -45 -50 -81
-65 -148 -59 -90 7 -145 63 -161 160 -6 42 -36 69 -66 61 -24 -7 -34 -26 -42
-77 -13 -84 -86 -146 -172 -146 -92 0 -157 55 -174 146 -14 74 -62 101 -98 56
-7 -9 -13 -27 -13 -41 0 -13 -9 -44 -21 -68 -53 -110 -220 -126 -295 -28 -13
17 -28 56 -34 86 -12 62 -19 72 -56 72 -33 0 -54 -26 -54 -67 0 -46 -45 -113
-92 -137 -55 -28 -140 -23 -186 10 -57 40 -72 85 -72 213 l0 113 102 102 103
103 891 0 891 0 101 -104z m-1569 -540 c99 -45 235 -19 311 59 l32 33 36 -35
c105 -106 289 -105 392 2 l32 33 36 -35 c54 -54 114 -78 197 -77 79 0 148 29
199 82 l28 31 25 -29 c32 -39 117 -79 181 -87 l52 -6 0 -418 0 -419 -585 0
-585 0 0 353 c0 261 -3 356 -12 365 -9 9 -84 12 -274 12 -225 0 -265 -2 -278
-16 -14 -13 -16 -61 -16 -365 l0 -349 -80 0 -80 0 0 419 0 418 60 6 c73 8 136
37 180 82 l32 33 36 -35 c19 -20 56 -45 81 -57z"/>
<path d="M8706 808 c-14 -19 -16 -64 -16 -288 0 -224 2 -269 16 -288 l15 -22
428 0 c402 0 429 1 444 18 15 16 17 52 17 295 0 237 -2 278 -16 291 -14 14
-68 16 -444 16 l-429 0 -15 -22z m794 -288 l0 -210 -350 0 -350 0 0 210 0 210
350 0 350 0 0 -210z"/>
<path d="M1030 990 l0 -490 129 0 129 0 4 228 c3 245 5 254 59 286 31 19 72
21 101 5 41 -22 48 -65 48 -299 l0 -220 136 0 136 0 -4 273 c-3 270 -3 272
-30 329 -62 132 -239 166 -392 73 l-56 -34 0 170 0 169 -130 0 -130 0 0 -490z"/>
<path d="M290 1425 c-158 -44 -231 -118 -246 -250 -13 -111 45 -214 151 -265
24 -12 114 -39 201 -61 87 -21 166 -47 176 -56 26 -23 20 -64 -12 -81 -16 -8
-55 -12 -111 -10 -99 3 -124 17 -135 74 l-6 34 -139 0 -139 0 0 -33 c0 -54 27
-129 61 -170 99 -120 408 -163 613 -87 120 45 187 143 189 274 3 156 -74 227
-303 281 -136 32 -210 54 -227 68 -20 15 -15 52 8 73 17 15 36 19 96 19 69 0
76 -2 99 -28 13 -15 24 -37 24 -48 0 -18 8 -19 141 -19 l142 0 -6 51 c-12 100
-78 175 -196 220 -74 29 -296 37 -381 14z"/>
<path d="M3712 1318 l3 -113 193 -3 c105 -1 192 -5 192 -8 0 -2 -94 -138 -210
-302 -201 -285 -209 -299 -210 -344 l0 -48 450 0 450 0 0 110 0 110 -219 2
-219 3 214 303 c209 296 214 304 214 352 l0 50 -430 0 -431 0 3 -112z"/>
<path d="M2190 1219 c-164 -28 -269 -134 -289 -295 -17 -141 15 -260 92 -337
145 -145 492 -137 622 15 57 67 78 136 78 253 0 116 -21 186 -77 251 -83 97
-251 142 -426 113z m199 -203 c27 -24 41 -84 40 -167 -1 -132 -34 -180 -126
-181 -107 0 -138 43 -138 192 1 131 23 167 110 182 33 6 94 -8 114 -26z"/>
<path d="M3202 1212 c-30 -11 -71 -36 -92 -57 l-39 -38 -12 46 -11 47 -109 0
-109 0 0 -490 0 -490 135 0 135 0 0 167 0 166 23 -21 c41 -39 97 -56 182 -56
66 1 89 5 131 27 63 32 107 83 136 157 18 45 22 77 22 175 1 140 -16 210 -67
277 -69 91 -212 130 -325 90z m68 -195 c41 -20 60 -72 60 -162 0 -90 -19 -142
-60 -162 -58 -29 -132 -4 -156 52 -19 47 -19 187 1 225 27 53 100 75 155 47z"/>
<path d="M4953 1215 c-127 -28 -213 -97 -255 -204 -17 -44 -21 -77 -21 -156 0
-117 21 -186 78 -253 131 -153 477 -160 624 -13 127 127 127 405 0 532 -91 91
-264 129 -426 94z m203 -193 c34 -18 49 -69 49 -167 0 -144 -32 -187 -138
-187 -91 1 -125 49 -126 181 -1 83 13 143 41 167 35 32 121 35 174 6z"/>
<path d="M6027 1219 c-50 -12 -109 -43 -151 -79 l-34 -30 -7 50 -7 50 -109 0
-109 0 0 -355 0 -355 129 0 129 0 4 228 c3 245 5 254 59 286 31 19 72 21 101
5 41 -22 48 -65 48 -299 l0 -220 136 0 136 0 -4 273 c-3 270 -3 272 -30 329
-47 102 -161 148 -291 117z"/>
<path d="M6770 1219 c-116 -20 -221 -93 -261 -184 -41 -92 -43 -258 -4 -350
55 -132 185 -199 390 -199 224 -1 354 79 380 232 l7 42 -129 0 -129 0 -13 -35
c-18 -50 -51 -68 -121 -68 -87 0 -130 35 -144 116 l-7 37 272 0 272 0 -7 80
c-8 104 -37 178 -87 230 -87 89 -247 127 -419 99z m188 -186 c20 -12 52 -67
52 -88 0 -3 -58 -5 -130 -5 -123 0 -130 1 -130 20 0 30 51 80 90 90 42 10 86
3 118 -17z"/>
</g>
</svg>
